<svg id="eJ20Y7ijbkn1" xmlns="http://www.w3.org/2000/svg" xmlns:xlink="http://www.w3.org/1999/xlink" viewBox="0 0 300 300" shape-rendering="geometricPrecision" text-rendering="geometricPrecision"><path d="M55.75852,172.502008q76.933787-3.951936,94.241479,41.152959c17.307692,45.104895-56.924813-149.964173,41.355406-88.626474s-50.918068,44.989252,49.871806-23.36651" transform="translate(.000001 0.000002)" fill="none" stroke="#ffd400" stroke-width="10"/><path d="M214.721917,106.195785q8.092422-13.754869,20.055333-19.659002" transform="matrix(.859834 0 0 0.866586 14.811752 26.049912)" fill="none" stroke="#ffd400" stroke-width="10"/><path d="M142.05425,224.429763q-12.904766,11.749115-11.363898,28.891266" fill="none" stroke="#ffd400" stroke-width="10"/><path d="M131.846003,216.1476q-40.832989,11.749114-46.996459,49.30776" fill="none" stroke="#ffd400" stroke-width="10"/><path d="M229.096618,99.962393l7.806145,3.103263l1.247704,8.509978q.766752-8.149129,4.286981-11.229332c2.559392-2.23947-.895786,2.463419-13.34083-.383909Z" transform="matrix(3.098826-.065545 0.062561 2.95772-500.401904-188.012646)" fill="#ffd400" fill-rule="evenodd" stroke-width="5"/></svg>
