<svg id="eFTai6rSdyO1" xmlns="http://www.w3.org/2000/svg" xmlns:xlink="http://www.w3.org/1999/xlink"
    viewBox="0 0 300 300" shape-rendering="geometricPrecision" text-rendering="geometricPrecision">
    <ellipse rx="115" ry="115" transform="translate(150 150)" stroke-width="0" />
    <path
        d="M33.946911,53.045957Q32.742955,20.10124,65.249754,20.10124t174.172229-.000001q31.650226.0366,31.650226,29.332851t0,196.167644q1.02072,30.582447-21.121171,30.582447t-188.883888,0q-26.948798-3.018053-26.948798-28.323071t-.171441-194.815153Z"
        transform="matrix(.690651 0 0 0.638192 44.669222 55.456508)" fill="#fff" stroke-width="0.6" />
    <path
        d="M129.485496,128.008476c-9.676102.000001-24.216831-5.284573-24.216831-21.991518s13.825034-22.819948,22.365668-23.067706q8.540634-.247758,44.731336-.495517q22.365668,1.571702,22.365668,23.563222t-22.365668,21.99152q-22.134912,2.938866-22.365668,21.991521t-.000001,43.983041q-2.469283,19.935439-20.514504,22.012348c-18.045221,2.076909-23.61671-15.620538-24.070517-17.313587-2.848321-10.62643,3.978904-26.160511,20.601902-26.787367c4.660651-.175754-20.801844,1.532097-20.748216-21.894435s24.216831-21.991522,24.216831-21.991522Z"
        transform="translate(.000004 0.000003)" fill="none" stroke="#000" stroke-width="3" />
    <path d="M126.016885,128.008479l46.348788.000001" transform="translate(0 0.000001)" fill="none"
        stroke="#000" stroke-width="3" />
    <path d="M150,82.949255l.000005,67.050746" fill="none" stroke="#000" stroke-width="3" />
    <path d="M151.307426,139.298307l-.06862-9.949843l10.910518-.06862-10.841898,10.018463Z"
        transform="translate(0 0.000003)" stroke="#000" stroke-width="0.6" />
    <path d="M127.634333,171.991521q.000004,0,23.673093,0"
        transform="matrix(1.136649 0 0 1-20.744628 0)" fill="none" stroke="#000" stroke-width="3" />
    <path
        d="M150.000005,150.000001Q150,171.894436,172.365668,171.894436t22.365675-22.597894q-2.074713-21.288059-27.109936-21.288061"
        transform="translate(0 0.000001)" fill="none" stroke="#000" stroke-width="3" />
</svg>