<svg id="enhMm1Z4dJv1" xmlns="http://www.w3.org/2000/svg" xmlns:xlink="http://www.w3.org/1999/xlink" viewBox="0 0 300 300" shape-rendering="geometricPrecision" text-rendering="geometricPrecision"><defs><radialGradient id="enhMm1Z4dJv17-fill" cx="0" cy="0" r="0.5" spreadMethod="pad" gradientUnits="objectBoundingBox" gradientTransform="translate(0.5 0.5)"><stop id="enhMm1Z4dJv17-fill-0" offset="0%" stop-color="#c68500"/><stop id="enhMm1Z4dJv17-fill-1" offset="100%" stop-color="#ffc703"/></radialGradient></defs><ellipse rx="125" ry="125" transform="translate(149.774187 150.699301)" fill="#6344c6" stroke-width="0"/><ellipse rx="8.337574" ry="11.672603" transform="matrix(.58171 0.260467-.435198 0.971945 191.865797 129.954746)" fill="#fff" stroke-width="0"/><rect width="22.552447" height="49.143358" rx="0" ry="0" transform="translate(138.723777 168.199301)" fill="#ffc703" stroke-width="0"/><ellipse rx="63.888889" ry="63.888889" transform="matrix(.9 0 0 0.9 149.650359 168.199301)" fill="none" fill-rule="evenodd" stroke="#fff" stroke-width="25"/><ellipse rx="43.644013" ry="44.560947" transform="matrix(.916506 0 0 0.897647 150 110.699301)" fill="none" fill-rule="evenodd" stroke="#ffc703" stroke-width="18"/><ellipse rx="6.047244" ry="13.316154" transform="matrix(.41644 0.576964-.497135 0.358821 184.846909 131.054827)" fill="#ffc703" stroke-width="0"/><ellipse rx="8.337574" ry="11.672603" transform="matrix(.864906 0.134079-.154942 0.999487 177.898711 117.986365)" fill="#fff" stroke-width="0"/><ellipse rx="8.337574" ry="11.672603" transform="matrix(.58171 0.260467-.435198 0.971945 191.865797 129.954746)" fill="#fff" stroke-width="0"/><ellipse rx="8.337574" ry="11.672603" transform="matrix(.592711-.234355 0.391571 0.990326 107.721281 129.282665)" fill="#fff" stroke-width="0"/><ellipse rx="8.337574" ry="11.672603" transform="matrix(.924727-.099865 0.107884 0.998978 122.087608 117.443653)" fill="#fff" stroke-width="0"/><g><path d="M193.419442,120.226554q8.33724,4.314887,11.92079,14.261067c3.58355,9.94618-1.170138,5.55816,3.510417,14.626736q4.680555,9.068576,4.231015,26.327448" transform="translate(.000001 0.000002)" fill="none" stroke="#55dbff" stroke-width="0.3"/><path d="M203.339552,129.918022q1.393324,4.824921.634915,8.522165c-.758409,3.697244-.379205,9.100908,1.516818,11.944942q1.896023,2.844034.284404,6.825682" fill="none" stroke="#55dbff" stroke-width="0.3"/></g><path d="M106.03756,118.910069q-5.863995,3.176331-12.216655,16.492484t-4.153663,25.166308q.583923,5.457646-.875719,9.39868c-1.459642,3.941034-.291928,11.823102,2.627356,15.618173" transform="translate(.000002 0)" fill="none" stroke="#55dbff" stroke-width="0.3"/><path d="M96.664438,131.694728q-3.85897,11.457974-1.932657,16.562704c1.926313,5.10473,3.0821,11.654193,2.504206,14.83261q-.577894,3.178417,1.357939,9.786113" transform="translate(-.305023-1.220092)" fill="none" stroke="#55dbff" stroke-width="0.3"/><ellipse rx="15.26771" ry="9.524573" transform="matrix(.743399 0 0 0.700005 150.056926 168.283276)" fill="url(#enhMm1Z4dJv17-fill)" stroke-width="0"/></svg>
