<svg id="eZCQp51s9Vd1" xmlns="http://www.w3.org/2000/svg" xmlns:xlink="http://www.w3.org/1999/xlink" viewBox="0 0 300 300" shape-rendering="geometricPrecision" text-rendering="geometricPrecision"><path d="M178.600653,240.20979c.161687,0,12.21082-4.5925,21.168276-14.608566s9.936379-13.338365,14.062424-23.424254q4.126045-10.085889,3.039276-31.31006l-.000001-95.150569q.22333-21.534468-13.748089-39.332454C189.15112,18.585901,170.508487,12.180531,153.81869,11.768549s-31.759416,6.377245-41.196246,14.297441-17.065061,17.345494-20.958348,31.219861q-3.893287,13.874367-2.765498,35.340563l-.000001,90.817028q1.305695,23.10057,12.554226,36.981736c11.248531,13.881166,23.716137,20.344312,36.131654,23.312433s25.143363,2.979435,41.016176-3.527821Z" transform="matrix(1 0 0 0.915648-2.868156 32.162146)" fill="none" stroke="#000" stroke-width="10"/><path d="M153.818696,57.285854v35.340563" transform="translate(-3.818696 25.171476)" fill="none" stroke="#000" stroke-width="15"/></svg>
