<svg id="eTEmsbtkw161" xmlns="http://www.w3.org/2000/svg" xmlns:xlink="http://www.w3.org/1999/xlink" viewBox="0 0 300 300" shape-rendering="geometricPrecision" text-rendering="geometricPrecision"><path d="M64.785009,124.127509c19.965537-27.729913,39.484971-15.275675,39.484971-2.298521s-20.607684,66.608037-33.719573,77.622023-27.559016-6.024166-13.088519-27.729912c2.662072-3.993108,19.057394-17.814621,38.344919-23.091397c15.872263-4.342411,65.532121-.429727,52.766068-2.924721q-23.752298-4.642143-45.111339,5.744885l-5.122376,7.99069q-.316511,8.72885,6.129577,6.915888c11.535643-3.771268,17.712803-16.115462,6.982309-16.356449s1.048951,27.272723,13.111888,13.636363c7.516677-8.497112,22.611136-45.424133,18.047973-41.309138-1.015638.915888-8.025574,18.217004-7.724693,16.834791l-12.892175,29.208836q4.880465-17.525303,13.093616-16.31666c7.764376.665517-.609942,12.026534-.201441,13.093616c2.642209,6.901947,16.100406-3.890587,18.632091-6.737062q3.146853-9.440559-5.337034,8.348584q3.523826-17.080217,5.036006-11.280654q13.697937-4.230245,4.633126,12.690735" transform="translate(-18.257-15.2763)" fill="none" stroke="#fff" stroke-width="0.4"/><path d="M228.749823,96.255071q-51.84432,10.981801-31.413061,23.751338c20.431259,12.769537,40.862517,26.816027,22.218994,52.610491s-52.355101,7.40633-31.668451-.255392q20.68665-7.661722,77.128001-8.427895l-3.064689,7.15094l10.728-27.949303l18.386544-47.901746-8.938677,20.175868-39.585564,2.298516l56.441352-3.064689-10.981801,2.043126-13.529372,35.69553q3.978779-10.957949,7.631428-12.914726c3.652649-1.956777,3.554347,2.056008,2.022003,6.653041q-1.532344,4.597033-.32613,5.805104q4.044005.913162,11.863793-6.379796" transform="translate(-33.3677-2.1552)" fill="none" stroke="#fff" stroke-width="0.4"/><path d="M236.38827,140.134716q-2.140124,2.140122-3.07969,5.324208t-.089532,6.896687q2.38625-6.218112,5.883524-8.671423c3.497274-2.453311,2.789429,3.474346,2.870897,3.392878s-.090252,4.43538.887368,3.131887c.065869-.087825,2.699542-2.695766,2.7665-2.818698.926818-1.701613,2.296718-4.332444,3.549473-6.107181c1.450348-2.054661-.804663,8.628488,1.313512,8.54702s4.584876,1.214029,6.933791-2.70083s8.375608-9.401023,6.420369-11.274794-4.668081,2.30306-1.409349,2.140123-1.778452,3.000511-4.280246,9.134671c-.926743,2.272286.645197,7.425987,8.140279-.883778q7.495082-8.309765,11.161154-15.560444" transform="translate(-33.3677-2.1552)" fill="none" stroke="#fff" stroke-width="0.4"/></svg>
